<svg width="24" height="25" viewBox="0 0 24 25" fill="none" xmlns="http://www.w3.org/2000/svg">
<path fill-rule="evenodd" clip-rule="evenodd" d="M9.29475 1.34031C10.6554 -0.446768 13.3443 -0.446771 14.705 1.34031L13.9094 1.9461L14.705 1.34031L14.9644 1.68101C15.2963 2.11691 15.852 2.31916 16.3864 2.19858L16.8041 2.10433C18.9952 1.60998 21.055 3.33835 20.9486 5.58197L20.9283 6.00971C20.9024 6.55697 21.198 7.06907 21.685 7.32023L22.0655 7.51654C24.0617 8.54623 24.5287 11.1942 23.005 12.8446L22.7145 13.1592C22.3429 13.5618 22.2402 14.1441 22.4518 14.6495L22.6171 15.0445C23.4844 17.1164 22.14 19.4451 19.912 19.7299L19.4872 19.7842C18.9438 19.8537 18.4908 20.2338 18.328 20.7569L18.2008 21.1658C17.5333 23.3105 15.0066 24.2301 13.1168 23.0162L13.5858 22.286L13.1168 23.0162L12.7565 22.7848L13.2969 21.9434L12.7565 22.7848C12.2955 22.4887 11.7042 22.4887 11.2432 22.7848L10.8829 23.0162C8.9931 24.2301 6.46639 23.3105 5.79898 21.1658L5.67174 20.7569C5.50894 20.2338 5.05596 19.8537 4.51251 19.7842L4.08775 19.7299C1.85975 19.4451 0.515316 17.1164 1.38263 15.0445L1.54798 14.6495L2.44777 15.0261L1.54798 14.6495C1.75953 14.1441 1.65685 13.5618 1.28521 13.1592L0.994724 12.8446C-0.528923 11.1942 -0.0620108 8.54624 1.9342 7.51654L2.31478 7.32023C2.80169 7.06907 3.09735 6.55697 3.07141 6.00971L3.05113 5.58197C2.94477 3.33835 5.00455 1.60998 7.19561 2.10433L7.61334 2.19858C8.14777 2.31916 8.70344 2.11691 9.03533 1.68101L9.67068 2.16477L9.03533 1.68101L9.29475 1.34031ZM13.1137 2.55189C12.5535 1.81604 11.4463 1.81604 10.886 2.55189L10.6266 2.8926C9.82055 3.95121 8.47108 4.44237 7.17316 4.14954L6.75544 4.05529C5.85324 3.85174 5.00509 4.56342 5.04888 5.48726L5.06916 5.915C5.13217 7.24406 4.41413 8.48773 3.23164 9.09769L2.85106 9.294C2.02909 9.71799 1.83683 10.8084 2.46422 11.4879L2.7547 11.8025C3.65726 12.7802 3.90663 14.1944 3.39286 15.4218L3.22751 15.8168C2.87039 16.6699 3.42397 17.6288 4.34139 17.7461L4.76615 17.8004C6.08596 17.9691 7.18605 18.8922 7.58141 20.1626L7.70865 20.5715C7.98347 21.4546 9.02387 21.8333 9.80204 21.3335L10.1623 21.102C11.2818 20.3829 12.7179 20.3829 13.8374 21.102L13.3683 21.8322L13.8374 21.102L14.1977 21.3335L13.6572 22.1748L14.1977 21.3335C14.9759 21.8333 16.0163 21.4546 16.2911 20.5715L16.4183 20.1626C16.8137 18.8922 17.9138 17.9691 19.2336 17.8004L19.6584 17.7461C20.5758 17.6288 21.1294 16.6699 20.7722 15.8168L20.6069 15.4218C20.0931 14.1944 20.3425 12.7802 21.245 11.8025L21.5355 11.4879L22.2703 12.1662L21.5355 11.4879C22.1629 10.8083 21.9706 9.71799 21.1487 9.294L20.7681 9.09769C19.5856 8.48773 18.8676 7.24405 18.9306 5.915L18.9509 5.48726C18.9946 4.56342 18.1465 3.85174 17.2443 4.05529L16.8266 4.14954C15.5287 4.44238 14.1792 3.95121 13.3732 2.8926L14.1688 2.2868L13.3732 2.89259L13.1137 2.55189Z" fill="white"/>
</svg>
