<svg width="16" height="16" viewBox="0 0 16 16" fill="none" xmlns="http://www.w3.org/2000/svg">
<path d="M13.3704 8.14323C13.2702 9.227 12.8635 10.2598 12.1978 11.1209C11.532 11.9819 10.6348 12.6356 9.61119 13.0053C8.58753 13.3751 7.47974 13.4456 6.41744 13.2088C5.35514 12.9719 4.38227 12.4374 3.61266 11.6678C2.84305 10.8982 2.30854 9.92531 2.07167 8.863C1.83481 7.8007 1.90538 6.69291 2.27513 5.66925C2.64488 4.6456 3.29852 3.74841 4.15957 3.08268C5.02061 2.41696 6.05344 2.01022 7.13721 1.91006C6.5027 2.76849 6.19737 3.82614 6.27675 4.89066C6.35614 5.95518 6.81496 6.95585 7.56978 7.71066C8.3246 8.46548 9.32527 8.92431 10.3898 9.00369C11.4543 9.08308 12.512 8.77775 13.3704 8.14323Z" stroke="#757575" stroke-linecap="round" stroke-linejoin="round"/>
</svg>
